<svg width="20" height="20" viewBox="0 0 20 20" fill="none" xmlns="http://www.w3.org/2000/svg">
<path fill-rule="evenodd" clip-rule="evenodd" d="M1.90002 4.99999C1.90002 4.66862 2.16865 4.39999 2.50002 4.39999H17.5C17.8314 4.39999 18.1 4.66862 18.1 4.99999C18.1 5.33136 17.8314 5.59999 17.5 5.59999H2.50002C2.16865 5.59999 1.90002 5.33136 1.90002 4.99999Z" fill="#B6B6B6"/>
<path fill-rule="evenodd" clip-rule="evenodd" d="M8.33332 2.26667C8.05042 2.26667 7.77911 2.37905 7.57907 2.57909C7.37903 2.77912 7.26665 3.05044 7.26665 3.33333V4.4H12.7333V3.33333C12.7333 3.05044 12.6209 2.77912 12.4209 2.57909C12.2209 2.37905 11.9495 2.26667 11.6667 2.26667H8.33332ZM13.9333 4.4V3.33333C13.9333 2.73217 13.6945 2.15564 13.2694 1.73056C12.8443 1.30547 12.2678 1.06667 11.6667 1.06667H8.33332C7.73216 1.06667 7.15562 1.30547 6.73054 1.73056C6.30546 2.15564 6.06665 2.73217 6.06665 3.33333V4.4H4.16665C3.83528 4.4 3.56665 4.66863 3.56665 5V16.6667C3.56665 17.2678 3.80546 17.8444 4.23054 18.2694C4.65562 18.6945 5.23216 18.9333 5.83332 18.9333H14.1667C14.7678 18.9333 15.3443 18.6945 15.7694 18.2694C16.1945 17.8444 16.4333 17.2678 16.4333 16.6667V5C16.4333 4.66863 16.1647 4.4 15.8333 4.4H13.9333ZM4.76665 5.6V16.6667C4.76665 16.9496 4.87903 17.2209 5.07907 17.4209C5.27911 17.621 5.55042 17.7333 5.83332 17.7333H14.1667C14.4495 17.7333 14.7209 17.621 14.9209 17.4209C15.1209 17.2209 15.2333 16.9496 15.2333 16.6667V5.6H4.76665Z" fill="#B6B6B6"/>
<path fill-rule="evenodd" clip-rule="evenodd" d="M8.33328 8.56667C8.66465 8.56667 8.93328 8.83529 8.93328 9.16667V14.1667C8.93328 14.498 8.66465 14.7667 8.33328 14.7667C8.00191 14.7667 7.73328 14.498 7.73328 14.1667V9.16667C7.73328 8.83529 8.00191 8.56667 8.33328 8.56667Z" fill="#B6B6B6"/>
<path fill-rule="evenodd" clip-rule="evenodd" d="M11.6667 8.56667C11.998 8.56667 12.2667 8.83529 12.2667 9.16667V14.1667C12.2667 14.498 11.998 14.7667 11.6667 14.7667C11.3353 14.7667 11.0667 14.498 11.0667 14.1667V9.16667C11.0667 8.83529 11.3353 8.56667 11.6667 8.56667Z" fill="#B6B6B6"/>
</svg>
